<svg xmlns="http://www.w3.org/2000/svg" version="1.1" xmlns:xlink="http://www.w3.org/1999/xlink" width="512" height="512" x="0" y="0" viewBox="0 0 24 24" style="enable-background:new 0 0 512 512" xml:space="preserve" class=""><g><path d="M15 21H9a1.007 1.007 0 0 1-.8-1.613l3-3.987a1 1 0 0 1 1.6 0l3 3.987A1.007 1.007 0 0 1 15 21zm.656-8.121a4.123 4.123 0 0 0 .1-.879 3.75 3.75 0 0 0-7.5 0 4.123 4.123 0 0 0 .1.879.75.75 0 0 0 1.466-.317A2.666 2.666 0 0 1 9.75 12a2.25 2.25 0 0 1 4.5 0 2.666 2.666 0 0 1-.063.562.75.75 0 0 0 .574.891.725.725 0 0 0 .16.017.75.75 0 0 0 .732-.591zm1.9 2.967a6.75 6.75 0 1 0-11.116 0 .75.75 0 0 0 1.235-.852 5.25 5.25 0 1 1 8.646 0 .75.75 0 0 0 1.235.852zm1.807 2.527A9.746 9.746 0 1 0 2.25 12a9.687 9.687 0 0 0 2.385 6.373.75.75 0 0 0 1.131-.986A8.245 8.245 0 1 1 20.25 12a8.187 8.187 0 0 1-2.016 5.387.75.75 0 0 0 1.131.986z" fill="#524f4f" opacity="1" data-original="#000000" class=""></path></g></svg>